<!-- [2026-08-04] [SVG, Stitch-Bro, O(1), Animated Icon] - Organized by Gemini -->
<svg xmlns="http://www.w3.org/2000/svg" viewBox="0 0 200 200" width="100%" height="100%">
  <style>
    @keyframes shield-pulse {
      0% { transform: scale(0.85); opacity: 0.8; stroke-width: 3px; }
      50% { transform: scale(1.1); opacity: 0.3; stroke-width: 1.5px; }
      100% { transform: scale(0.85); opacity: 0.8; stroke-width: 3px; }
    }
    @keyframes core-float {
      0%, 100% { transform: translateY(0px) rotate(0deg); }
      50% { transform: translateY(-4px) rotate(180deg); }
    }
    @keyframes beam-rotate {
      from { transform: rotate(0deg); }
      to { transform: rotate(360deg); }
    }
    @keyframes lock-flash {
      0%, 90%, 100% { fill: #00ffcc; opacity: 1; }
      45%, 55% { fill: #ffd700; opacity: 0.4; }
    }
    .shield-1 { transform-origin: 100px 100px; animation: shield-pulse 3s infinite ease-in-out; }
    .shield-2 { transform-origin: 100px 100px; animation: shield-pulse 3s infinite ease-in-out 1.5s; }
    .rotator { transform-origin: 100px 100px; animation: beam-rotate 12s linear infinite; }
    .rotator-rev { transform-origin: 100px 100px; animation: beam-rotate 8s linear infinite reverse; }
    .core { transform-origin: 100px 100px; animation: core-float 6s ease-in-out infinite; }
    .lock-node { animation: lock-flash 2s infinite; }
  </style>

  <rect width="200" height="200" fill="#030610" />

  <!-- Background Cyber Circuit Grid -->
  <g opacity="0.25" stroke="#00a8ff" stroke-width="1">
    <line x1="100" y1="0" x2="100" y2="200" />
    <line x1="0" y1="100" x2="200" y2="100" />
    <polygon points="100,20 180,100 100,180 20,100" fill="none" />
    <polygon points="100,35 165,100 100,165 35,100" fill="none" />
  </g>

  <!-- Pulsing Turquoise Protective Shields -->
  <polygon points="100,15 175,55 175,145 100,185 25,145 25,55" fill="none" stroke="#00ffcc" class="shield-1" />
  <polygon points="100,25 165,60 165,140 100,175 35,140 35,60" fill="none" stroke="#00a8ff" class="shield-2" />

  <!-- Rotating Cryptography Ring -->
  <g class="rotator">
    <circle cx="100" cy="100" r="70" fill="none" stroke="#00ffcc" stroke-width="2" stroke-dasharray="25 15 10 15" opacity="0.7" />
    <circle cx="100" cy="30" r="4" fill="#ff00aa" />
    <circle cx="100" cy="170" r="4" fill="#ff00aa" />
  </g>

  <g class="rotator-rev">
    <circle cx="100" cy="100" r="55" fill="none" stroke="#ffd700" stroke-width="1.5" stroke-dasharray="40 20 8 10" opacity="0.6" />
    <polygon points="100,45 96,52 104,52" fill="#ffd700" />
    <polygon points="100,155 96,148 104,148" fill="#ffd700" />
  </g>

  <!-- Central Monolith Diamond / Gold Crown Core -->
  <g class="core">
    <!-- Double Stroke for high VRAM performance without drop-shadows -->
    <polygon points="100,55 135,90 100,145 65,90" fill="#030610" stroke="#ffd700" stroke-width="5" stroke-linejoin="round" />
    <polygon points="100,55 135,90 100,145 65,90" fill="#030610" stroke="#ffffff" stroke-width="2" stroke-linejoin="round" />
    
    <!-- Inner Diamond Facets -->
    <line x1="65" y1="90" x2="135" y2="90" stroke="#ffd700" stroke-width="2" />
    <polyline points="100,55 85,90 100,145" fill="none" stroke="#ffd700" stroke-width="2" />
    <polyline points="100,55 115,90 100,145" fill="none" stroke="#ffd700" stroke-width="2" />
    
    <!-- Crown core center eye -->
    <circle cx="100" cy="80" r="6" fill="#00ffcc" class="lock-node" />
    <circle cx="100" cy="80" r="3" fill="#ffffff" />
  </g>

  <!-- Corner Sovereign Seals -->
  <circle cx="25" cy="25" r="8" fill="none" stroke="#ffd700" stroke-width="2" />
  <circle cx="25" cy="25" r="3" fill="#00ffcc" />
  <circle cx="175" cy="25" r="8" fill="none" stroke="#ffd700" stroke-width="2" />
  <circle cx="175" cy="25" r="3" fill="#00ffcc" />
  <circle cx="25" cy="175" r="8" fill="none" stroke="#ffd700" stroke-width="2" />
  <circle cx="25" cy="175" r="3" fill="#00ffcc" />
  <circle cx="175" cy="175" r="8" fill="none" stroke="#ffd700" stroke-width="2" />
  <circle cx="175" cy="175" r="3" fill="#00ffcc" />
</svg>
